<svg width="353" height="332" viewBox="0 0 353 332" fill="none" xmlns="http://www.w3.org/2000/svg">
<path d="M175.249 262.807L235.448 161.079C236.663 158.504 237.851 157.216 239.066 154.641C240.282 152.066 241.47 150.778 241.523 148.203C241.55 146.915 241.603 144.34 238.144 143.052C236.983 143.052 235.847 141.764 234.685 141.764L234.739 139.189H283.538L283.484 141.764C282.323 141.764 279.972 143.052 278.81 143.052C277.622 144.34 274.083 146.915 275.165 150.778C275.165 150.778 333.255 319.465 334.363 322.041C335.472 324.616 338.904 327.191 340.066 327.191H341.228C342.39 327.191 344.687 328.479 345.849 328.479L345.796 331.054L284.216 331.054L284.269 328.479C292.402 328.479 297.13 324.616 296.075 319.465C294.993 315.602 255.696 193.272 255.696 193.272L173.837 331.054L97.6796 193.272C97.6796 193.272 53.3211 315.602 52.0793 319.465C50.8108 324.616 55.3784 328.479 63.5116 328.479L63.4583 331.054H0.716766L0.770043 328.479C3.09381 328.479 5.44423 327.191 5.44423 327.191H6.60609C8.9565 325.904 12.4954 323.328 12.5221 322.041C13.7372 319.465 78.8066 150.778 78.8066 150.778C80.0484 146.915 76.6161 144.34 75.4809 143.052C74.3457 141.764 72.0218 141.764 70.8599 141.764L70.9132 139.189H119.712L119.659 141.764C118.497 141.764 117.335 141.764 116.147 143.052C112.634 144.34 112.581 146.915 112.555 148.203C112.528 149.49 113.636 152.066 114.745 154.641C115.854 157.216 116.989 158.504 118.098 161.079L175.249 262.807Z" fill="white" fill-opacity="0.62"/>
<path d="M263.93 76.0989L199.238 58.0713L179.033 79.962L159.734 58.0713L94.2954 76.0989L161.045 107.003L152.486 127.606H158.295L178.5 105.716L197.799 127.606H203.609L195.902 107.003L263.93 76.0989Z" fill="white" fill-opacity="0.62"/>
<path d="M180.684 0.119141L167.583 15.5714L158.395 10.4206L157.995 29.7359L202.147 29.7359L202.547 10.4206L194.307 15.5714L180.684 0.119141Z" fill="white" fill-opacity="0.62"/>
<path d="M154.41 146.913L176.769 189.407L200.885 146.913L178.18 121.159L154.41 146.913Z" fill="white" fill-opacity="0.62"/>
<path d="M203.096 40.0369H156.621L179.325 65.7906L203.096 40.0369Z" fill="white" fill-opacity="0.62"/>
</svg>
