<svg width="232" height="40" viewBox="0 0 232 40" fill="none" xmlns="http://www.w3.org/2000/svg">
<path d="M185.3 8.3522C184.8 8.60193 184.301 8.60194 183.802 8.60194H183.302V5.35544H183.802C184.301 5.35544 184.8 5.35544 185.3 5.60517C185.799 5.8549 186.049 6.35436 186.049 7.10355C186.049 7.60301 185.799 8.10247 185.3 8.3522ZM191.044 9.35112C191.543 8.60193 191.793 7.60301 191.793 6.60409V6.35437C191.793 5.60518 191.543 4.60626 191.293 3.85707C191.044 3.10788 190.544 2.35868 189.795 1.85922C189.046 1.35976 188.297 0.860293 187.547 0.860293C186.798 0.610562 185.799 0.610566 185.05 0.610566H177.309V17.842H183.302V12.0981L186.299 17.842H193.042L188.546 10.8495C189.545 10.8495 190.295 10.35 191.044 9.35112ZM101.89 22.3371H98.6435L92.65 29.3295V22.3371H89.9029V39.5685H92.65V30.8279L99.3927 39.5685H102.889L95.397 30.0787L101.89 22.3371ZM77.6661 5.60517H78.1656C78.4153 5.60517 78.4153 5.60517 78.6651 5.60517C79.1645 5.60517 79.4142 5.8549 79.9137 5.8549C80.1634 6.10463 80.4132 6.35436 80.4132 6.85382C80.4132 7.35328 80.1634 7.85274 79.9137 7.85274C79.4142 8.10247 79.1645 8.10247 78.6651 8.10247C78.4153 8.10247 78.4153 8.10247 78.1656 8.10247H77.6661V5.60517ZM77.6661 12.8473H78.6651C78.6651 12.8473 78.9148 12.8473 79.1645 12.8473H79.664C80.1634 12.8473 80.4132 12.8473 80.9126 12.8473C81.4121 12.8473 81.6618 12.8474 82.1613 12.5976C83.4099 12.3479 84.4089 11.8484 85.158 10.8495C85.9072 9.85058 86.4067 8.85167 86.4067 7.60302V7.35329V7.10355C86.4067 4.60625 85.6575 3.10786 84.4089 2.10894C83.1602 1.11002 81.1624 0.860293 78.9148 0.860293H71.6726V18.0917H77.6661V12.8473ZM205.528 6.60409C205.528 6.85382 205.528 7.35329 205.528 7.60302C205.528 7.85275 205.528 8.35221 205.528 8.60194C205.528 8.85167 205.528 8.85167 205.528 9.1014C205.528 9.35113 205.528 9.35112 205.528 9.60085L200.284 0.610566H194.29V17.842H200.284V11.5987C200.284 11.349 200.284 11.0992 200.284 10.8495C200.284 10.5998 200.284 10.35 200.284 10.1003C200.284 9.85059 200.284 9.60085 200.284 9.35112C200.284 9.10139 200.284 8.85167 200.284 8.60194L205.528 17.5922H211.522V0.36084H205.528V6.60409ZM84.4089 34.0744C84.1591 33.575 83.6597 33.3252 83.4099 32.8258C83.1602 32.576 82.9105 32.0766 82.411 31.8268L72.4218 22.0874H71.6726V39.3187H74.1699V27.3317C74.4196 27.5814 74.6694 28.0809 74.9191 28.3306C75.1688 28.5803 75.4186 29.0798 75.6683 29.3295L85.9072 39.3187H86.6564V22.0874H84.1591V34.0744H84.4089ZM165.072 11.5987C165.072 11.349 165.321 11.0992 165.321 10.8495C165.321 10.5998 165.571 10.35 165.571 10.1003C165.821 9.35113 165.821 8.85166 166.071 8.10247C166.32 7.35328 166.32 6.6041 166.32 6.10464C166.32 6.85383 166.57 7.60301 166.57 8.10247C166.82 8.85166 166.82 9.35113 167.07 10.1003C167.07 10.35 167.319 10.5998 167.319 10.8495C167.319 11.0992 167.569 11.349 167.569 11.5987H165.072ZM162.824 0.860293L156.831 18.0917H163.324L163.823 15.8441H168.318L168.818 18.0917H175.311L169.317 0.860293H162.824ZM123.617 17.842H135.104V13.0971H129.61V11.349H134.355V6.85382H129.61V5.10572H135.104V0.36084H123.617V17.842ZM98.8932 9.35112C98.8932 9.60085 98.8932 9.85059 98.8932 10.1003C98.8932 10.35 98.6435 10.5998 98.6435 10.8495C98.3937 11.349 98.144 11.8484 97.6446 12.0981C97.1451 12.3479 96.6456 12.5976 96.1462 12.5976C95.8964 12.5976 95.6467 12.5976 95.1473 12.3479C94.8975 12.3479 94.6478 12.0982 94.3981 11.8484C94.1483 11.5987 93.8986 11.0992 93.6489 10.8495C93.3991 10.35 93.3991 9.85058 93.3991 9.60085C93.3991 9.35112 93.3991 8.85167 93.3991 8.60194C93.3991 8.35221 93.6489 8.10247 93.6489 7.85274C93.8986 7.35328 94.1483 7.10355 94.6478 6.85382C95.1473 6.60409 95.397 6.60409 95.8964 6.60409C96.1462 6.60409 96.6456 6.60409 96.8954 6.85382C97.1451 7.10355 97.6446 7.35329 97.8943 7.60302C98.144 7.85275 98.144 8.10248 98.3938 8.60194C98.6435 8.35221 98.6435 8.85166 98.8932 9.35112ZM104.387 11.5987C104.637 10.8495 104.637 10.1003 104.637 9.35112C104.637 8.10247 104.387 7.10356 104.138 6.10464C103.638 5.10572 103.139 4.10678 102.389 3.35759C101.64 2.6084 100.641 1.85922 99.6424 1.60949C98.6435 1.11003 97.6446 0.860293 96.3959 0.860293H96.1462C94.8975 0.860293 93.3991 1.11003 92.1505 1.60949C90.9018 2.10895 89.9029 3.10787 88.904 4.10679C88.4045 4.85598 87.9051 5.60517 87.6553 6.60409C87.4056 7.60301 87.1559 8.3522 87.1559 9.35112C87.1559 10.5998 87.4056 12.0981 87.9051 13.3468C88.4045 14.5955 89.4035 15.5944 90.4024 16.3436C91.1516 16.843 91.9008 17.3425 92.65 17.5922C93.3991 17.842 94.3981 18.0917 95.1473 18.0917H95.397C96.8954 18.0917 98.3937 17.8419 99.8921 17.0928C101.391 16.3436 102.389 15.3447 103.139 13.8463C103.888 12.8474 104.387 12.3479 104.387 11.5987ZM112.628 28.8301L114.376 32.8258H109.632L111.38 28.8301C111.38 28.5804 111.629 28.3306 111.629 27.8312C111.629 27.5814 111.879 27.082 111.879 26.8322C111.879 27.3317 112.129 27.5814 112.129 27.8312C112.379 28.0809 112.628 28.5804 112.628 28.8301ZM111.629 22.3371L103.888 39.5685H106.885L108.882 35.0733H115.375L117.373 39.5685H120.37L112.628 22.3371H111.629ZM105.636 6.35437H110.381V17.842H116.374V6.35437H120.869V0.860293H105.636V6.35437ZM154.583 0.860293H147.591L143.845 8.10247V0.860293H137.851V18.0917H143.845V10.8495L147.84 18.0917H155.332L149.588 9.35112L154.583 0.860293ZM21.4768 22.3371V39.5685C29.9676 39.5685 34.4628 35.8225 34.4628 31.0777C34.2131 26.0831 29.9676 22.3371 21.4768 22.3371ZM0 17.842H17.2314V0.610566H0V17.842ZM0 39.3187H17.2314V22.0874H0V39.3187ZM21.4768 0.860293V18.0917C29.9676 18.0917 34.4628 14.3457 34.4628 9.60085C34.2131 4.60625 29.9676 0.860293 21.4768 0.860293ZM68.6758 0.860293H62.4326V18.0917H68.6758V0.860293ZM59.9353 17.842V0.610566H53.9418V6.35437H49.1969V0.610566H42.9536V17.842H48.9471V11.8484H53.692V17.842H59.9353ZM62.932 28.8301L64.6802 32.8258H59.9353L61.6834 28.8301C61.6834 28.5804 61.9331 28.3306 61.9331 27.8312C61.9331 27.5814 62.1829 27.082 62.1829 26.8322C62.1829 27.3317 62.4326 27.5814 62.4326 27.8312C62.6823 28.0809 62.6823 28.5804 62.932 28.8301ZM61.9331 22.3371L54.1915 39.5685H57.1882L59.1861 35.0733H65.4293L67.4272 39.5685H70.424L62.6823 22.3371H61.9331ZM50.4455 35.5728C50.1958 36.0723 49.9461 36.322 49.6963 36.5717C49.4466 36.8214 48.9471 36.8214 48.4477 37.0712C47.9482 37.0712 47.199 37.0712 46.2001 37.0712H45.4509V31.5771H47.199C47.6985 31.5771 48.198 31.5771 48.4477 31.5771C48.6974 31.5771 49.1969 31.8268 49.4466 31.8268C49.9461 32.0766 50.1958 32.3263 50.4455 32.8258C50.6953 33.3252 50.6953 33.8247 50.6953 34.3241C50.6953 34.8236 50.6953 35.3231 50.4455 35.5728ZM45.4509 24.5847H46.4498C47.9482 24.5847 48.6974 24.8344 49.1969 25.0841C49.6963 25.5836 49.9461 26.083 49.9461 27.082C49.9461 27.8312 49.6963 28.5804 49.1969 28.8301C48.6974 29.0798 47.6985 29.3295 46.4498 29.3295H45.4509V24.5847ZM50.4455 30.3285C51.1947 30.0787 51.9439 29.5793 52.1936 29.0798C52.6931 28.5803 52.6931 27.8312 52.6931 26.8322C52.6931 26.083 52.4434 25.3339 52.1936 24.8344C51.9439 24.0852 51.4445 23.5857 50.945 23.336C50.4455 23.0863 49.9461 22.8366 49.4466 22.5868C48.9471 22.3371 47.9482 22.3371 46.6996 22.3371H42.9536V39.5685H47.199C48.6974 39.5685 49.9461 39.5685 50.6953 39.3187C51.4444 39.069 51.9439 38.8193 52.4434 38.3198C52.9428 37.8204 53.1926 37.3209 53.4423 36.8214C53.692 36.322 53.692 35.5728 53.692 34.8236C53.692 33.575 53.4423 32.8258 52.9428 32.0766C52.1936 30.8279 51.4445 30.3285 50.4455 30.3285ZM221.011 11.5987C221.011 11.349 221.261 11.0992 221.261 10.8495C221.261 10.5998 221.511 10.35 221.511 10.1003C221.761 9.35113 221.761 8.85166 222.01 8.10247C222.26 7.35328 222.26 6.6041 222.26 6.10464C222.26 6.85383 222.51 7.60301 222.51 8.10247C222.759 8.85166 222.759 9.35113 223.009 10.1003C223.009 10.35 223.259 10.5998 223.259 10.8495C223.259 11.0992 223.509 11.349 223.509 11.5987H221.011ZM225.756 0.860293H219.013L213.02 18.0917H219.513L220.012 15.8441H224.508L225.007 18.0917H231.5L225.756 0.860293Z" fill="white"/>
</svg>
