<svg width="232" height="42" viewBox="0 0 232 42" fill="none" xmlns="http://www.w3.org/2000/svg">
<path d="M32.851 5.1522C32.5963 5.40686 32.3416 5.66153 32.087 5.66153C27.7578 9.4814 25.2112 14.8292 25.2112 20.941C25.2112 27.0528 28.0124 32.6553 32.087 36.2205C32.3416 36.4752 32.5963 36.7298 32.851 36.7298C33.1056 36.4752 33.3603 36.2205 33.6149 36.2205C37.9441 32.4007 40.4907 27.0528 40.4907 20.941C40.4907 14.8292 37.6895 9.22675 33.6149 5.66153C33.3603 5.66153 33.1056 5.40686 32.851 5.1522ZM45.3292 0.823014C41.2547 0.823014 37.4348 2.09631 34.1243 4.13358C34.3789 4.38824 34.3789 4.38823 34.6336 4.64289C39.4721 8.71742 42.2733 14.8292 42.2733 21.1957C42.2733 27.5621 39.4721 33.4193 34.6336 37.7485C34.3789 38.0031 34.3789 38.0031 34.1243 38.2578C37.4348 40.2951 41.2547 41.5684 45.3292 41.5684C56.5342 41.5684 65.7019 32.4007 65.7019 21.1957C65.7019 9.99072 56.5342 0.823014 45.3292 0.823014ZM31.0684 37.4938C31.323 37.7485 31.323 37.7485 31.5777 38.0031C28.2671 40.0404 24.4472 41.3137 20.3727 41.3137C9.1677 41.3137 0 32.146 0 20.941C0 9.73606 9.1677 0.568359 20.3727 0.568359C24.4472 0.568359 28.2671 1.84164 31.5777 3.87891C31.323 4.13357 31.323 4.13358 31.0684 4.38824C26.2298 8.46277 23.4286 14.5746 23.4286 20.941C23.4286 27.5622 26.2298 33.4193 31.0684 37.4938ZM106.193 21.1957C106.193 18.9038 107.721 16.8665 110.267 16.8665C112.814 16.8665 114.342 18.6491 114.342 21.1957C114.342 23.7423 112.814 25.5249 110.267 25.5249C107.721 25.5249 106.193 23.4876 106.193 21.1957ZM117.143 21.1957V14.5746H114.087V16.1025C113.068 14.8292 111.795 14.0652 109.758 14.0652C105.938 14.0652 103.137 17.1212 103.137 21.1957C103.137 25.2702 106.193 28.3261 109.758 28.3261C111.795 28.3261 113.068 27.5621 114.087 26.2889V27.8168H117.143V21.1957ZM216.205 21.1957C216.205 18.9038 217.733 16.8665 220.28 16.8665C222.826 16.8665 224.354 18.6491 224.354 21.1957C224.354 23.7423 222.826 25.5249 220.28 25.5249C217.988 25.5249 216.205 23.4876 216.205 21.1957ZM230.466 27.3075C230.721 27.5622 230.721 27.5621 230.721 27.5621C230.721 27.3075 230.721 27.3075 230.466 27.3075ZM230.721 27.0528C230.975 27.0528 230.975 27.3075 230.975 27.3075C230.975 27.3075 230.975 27.3075 230.975 27.5621C230.975 27.5621 230.975 27.5621 230.721 27.5621L230.975 27.8168H230.721L230.466 27.5621V27.8168H230.211V27.0528H230.721ZM230.721 28.3261H230.975C230.975 28.3261 231.23 28.3261 231.23 28.0715C231.23 28.0715 231.23 27.8168 231.484 27.8168V27.5621V27.3075C231.484 27.3075 231.485 27.0528 231.23 27.0528C231.23 27.0528 230.975 27.0528 230.975 26.7982H230.721H230.466C230.466 26.7982 230.211 26.7982 230.211 27.0528C230.211 27.0528 230.211 27.3075 229.957 27.3075V27.5621V27.8168C229.957 27.8168 229.957 28.0715 230.211 28.0715C230.211 28.0715 230.466 28.0715 230.466 28.3261C230.466 28.3261 230.466 28.3261 230.721 28.3261ZM230.721 26.7982H230.975C230.975 26.7982 231.23 26.7982 231.23 27.0528L231.484 27.3075V27.5621V27.8168C231.484 27.8168 231.485 28.0715 231.23 28.0715L230.975 28.3261H230.721H230.466C230.466 28.3261 230.211 28.3261 230.211 28.0715L229.957 27.8168V27.5621V27.3075C229.957 27.3075 229.957 27.0528 230.211 27.0528L230.466 26.7982C230.466 26.7982 230.466 26.7982 230.721 26.7982ZM227.155 21.1957V8.97208H224.354V16.1025C223.335 14.8292 222.062 14.0652 220.025 14.0652C216.205 14.0652 213.404 17.1212 213.404 21.1957C213.404 25.2702 216.46 28.3261 220.025 28.3261C222.062 28.3261 223.335 27.5621 224.354 26.2889V27.8168H227.41V21.1957H227.155ZM153.559 16.8665C155.342 16.8665 156.615 18.1398 156.87 20.177H149.994C150.248 18.1398 151.522 16.8665 153.559 16.8665ZM153.559 14.0652C149.485 14.0652 146.938 16.8665 146.938 21.1957C146.938 25.5249 149.739 28.3261 153.814 28.3261C155.851 28.3261 157.634 27.8168 159.416 26.5435L157.888 24.2516C156.87 25.2702 155.342 25.7795 154.068 25.7795C152.286 25.7795 150.503 25.0156 149.994 22.469H159.926C159.926 22.2143 159.926 21.705 159.926 21.4503C159.926 17.1211 157.379 14.0652 153.559 14.0652ZM188.957 21.1957C188.957 18.9038 190.485 16.8665 193.031 16.8665C195.578 16.8665 197.106 18.6491 197.106 21.1957C197.106 23.7423 195.578 25.5249 193.031 25.5249C190.739 25.5249 188.957 23.4876 188.957 21.1957ZM199.907 21.1957V14.5746H196.851V16.1025C195.832 14.8292 194.559 14.0652 192.522 14.0652C188.702 14.0652 185.901 17.1212 185.901 21.1957C185.901 25.2702 188.957 28.3261 192.522 28.3261C194.559 28.3261 195.832 27.5621 196.851 26.2889V27.8168H199.907V21.1957ZM172.404 21.1957C172.404 25.2702 175.205 28.3261 179.534 28.3261C181.571 28.3261 182.845 27.8168 184.373 26.7982L182.845 24.5063C181.826 25.2702 180.553 25.7795 179.28 25.7795C176.988 25.7795 175.205 23.9969 175.205 21.4503C175.205 18.9038 176.988 17.1212 179.28 17.1212C180.553 17.1212 181.826 17.6305 182.845 18.3944L184.373 16.1025C182.845 14.8292 181.571 14.5746 179.534 14.5746C175.46 14.0653 172.404 17.1212 172.404 21.1957ZM210.348 14.0652C208.565 14.0652 207.547 14.8292 206.783 16.1025V14.5746H203.981V28.0715H207.037V20.4317C207.037 18.1398 208.056 16.8665 209.839 16.8665C210.348 16.8665 211.112 16.8665 211.621 17.1212L212.64 14.3199C211.876 14.3199 210.857 14.0652 210.348 14.0652ZM131.658 15.5932C130.13 14.5746 128.348 14.0652 126.056 14.0652C122.745 14.0652 120.453 15.5932 120.453 18.3944C120.453 20.6864 121.981 21.9597 125.037 22.469L126.311 22.7236C127.839 22.9783 128.602 23.4876 128.602 24.2516C128.602 25.2702 127.584 25.7795 125.547 25.7795C123.509 25.7795 121.981 25.0156 120.963 24.2516L119.689 26.5435C121.217 27.8168 123.255 28.3261 125.547 28.3261C129.367 28.3261 131.658 26.5435 131.658 23.9969C131.658 21.705 129.876 20.4317 126.82 19.9224L125.547 19.6677C124.273 19.4131 123.255 19.1584 123.255 18.3944C123.255 17.3758 124.273 16.8665 125.801 16.8665C127.584 16.8665 129.112 17.6305 130.13 18.1398L131.658 15.5932ZM169.603 14.0652C167.82 14.0652 166.801 14.8292 166.037 16.1025V14.5746H163.236V28.0715H166.292V20.4317C166.292 18.1398 167.311 16.8665 169.093 16.8665C169.602 16.8665 170.367 16.8665 170.876 17.1212L171.894 14.3199C170.876 14.3199 170.112 14.0652 169.603 14.0652ZM144.391 14.5746H139.553V10.5H136.497V14.5746H133.696V17.3758H136.497V23.4876C136.497 26.5435 137.77 28.5808 141.081 28.5808C142.354 28.5808 143.882 28.0715 144.646 27.5621L143.882 25.0156C143.118 25.5249 142.099 25.7795 141.335 25.7795C139.807 25.7795 139.298 24.7609 139.298 23.4876V17.3758H144.137V14.5746H144.391ZM100.59 28.0715V19.6677C100.59 16.3572 98.5528 14.3199 95.2422 14.3199C93.4596 14.3199 91.677 14.8292 90.4037 16.6118C89.3851 15.0839 88.1118 14.3199 85.8199 14.3199C84.292 14.3199 83.0187 14.8292 81.7454 16.3572V14.5746H79.1988V28.0715H82.2547V20.6864C82.2547 18.3945 83.528 17.1212 85.5652 17.1212C87.6025 17.1212 88.6212 18.3945 88.6212 20.6864V28.0715H91.677V20.6864C91.677 18.3945 92.9504 17.1212 94.9876 17.1212C97.0249 17.1212 98.0435 18.3945 98.0435 20.6864V28.0715H100.59ZM65.1926 33.674V32.91H64.9379L64.6832 33.4193L64.4286 32.91H64.174V33.674H64.4286V33.1646L64.6832 33.674H64.9379L65.1926 33.1646V33.674ZM63.6646 33.674V32.91H63.9193V32.6553H63.1553V32.91H63.4099L63.6646 33.674Z" fill="white"/>
</svg>
