<svg width="232" height="64" viewBox="0 0 232 64" fill="none" xmlns="http://www.w3.org/2000/svg">
<path d="M37.3501 50.4527L49.716 30.9144C49.9633 30.4198 50.2106 30.1725 50.4579 29.6778C50.7052 29.1832 50.9525 28.9359 50.9525 28.4412C50.9525 28.1939 50.9526 27.6993 50.2106 27.4519C49.9633 27.4519 49.716 27.2046 49.4687 27.2046V26.71H59.8559V27.2046C59.6086 27.2046 59.114 27.4519 58.8667 27.4519C58.6194 27.6993 57.8774 28.1939 58.1247 28.9358C58.1247 28.9358 71.2325 61.3348 71.4798 61.8295C71.7271 62.3241 72.4691 62.8188 72.7164 62.8188H72.9637C73.211 62.8188 73.7057 63.0661 73.953 63.0661V63.5607H60.8452V63.0661C62.5764 63.0661 63.5657 62.3241 63.3184 61.3348C63.071 60.5929 54.1677 37.0974 54.1677 37.0974L37.3501 63.5607L20.5326 37.0974C20.5326 37.0974 11.6292 60.5929 11.3819 61.3348C11.1346 62.3241 12.1239 63.0661 13.8551 63.0661V63.5607H0.5V63.0661C0.994633 63.0661 1.48927 62.8188 1.48927 62.8188H1.73658C2.23122 62.5714 2.97316 62.0768 2.97316 61.8295C3.22048 61.3348 16.3282 28.9358 16.3282 28.9358C16.5756 28.1939 15.8336 27.6993 15.5863 27.4519C15.339 27.2046 14.8443 27.2046 14.597 27.2046V26.71H24.9843V27.2046C24.737 27.2046 24.4897 27.2046 24.2424 27.4519C23.5004 27.6993 23.5004 28.1939 23.5004 28.4412C23.5004 28.6885 23.7477 29.1832 23.9951 29.6778C24.2424 30.1725 24.4897 30.4198 24.737 30.9144L37.3501 50.4527Z" fill="white"/>
<path d="M88.2971 33.3865H90.5229C92.0068 33.3865 92.9961 34.1285 92.9961 35.3651C92.9961 36.6017 92.0068 37.3437 90.5229 37.3437H88.0498V33.3865H88.2971ZM88.2971 40.3115H90.5229C93.4907 40.3115 95.9639 38.5803 95.9639 35.6124C95.9639 32.8919 93.9854 30.9133 90.7703 30.9133H85.3293V44.516H88.2971V40.3115Z" fill="white"/>
<path d="M117.975 33.3902H120.943C122.426 33.3902 123.168 34.1322 123.168 35.3688C123.168 36.6054 122.426 37.3473 120.943 37.3473H117.975V33.3902ZM123.168 44.2723H126.631L123.416 39.3259C125.147 38.584 126.384 37.3473 126.384 35.1215C126.384 33.8849 125.889 32.8956 125.147 31.9063C124.158 30.917 122.921 30.4224 121.19 30.4224H115.007V44.025H117.975V39.5732H120.201L123.168 44.2723Z" fill="white"/>
<path d="M135.287 44.2686V33.6339H139.491V30.9133H128.115V33.6339H132.319V44.2686H135.287Z" fill="white"/>
<path d="M95.7166 49.7131L92.2542 55.4015L88.5444 49.7131H85.3293V63.3158H88.2971V54.4122L92.0069 60.1006H92.2542L95.9639 54.4122V63.3158H98.9317V49.7131H95.7166Z" fill="white"/>
<path d="M128.116 49.7131V58.122L121.686 49.7131H118.965V63.3158H121.933V54.6595L128.363 63.3158H131.084V49.7131H128.116Z" fill="white"/>
<path d="M133.31 49.7131V52.4337H137.514V63.3158H140.482V52.4337H144.686V49.7131H133.31Z" fill="white"/>
<path d="M146.913 49.7131V63.3158H157.3V60.5952H149.88V57.6274H156.311V55.1542H149.88V52.1863H157.3V49.7131H146.913Z" fill="white"/>
<path d="M169.169 49.7131V58.122L162.986 49.7131H160.019V63.3158H162.986V54.6595L169.664 63.3158H172.137V49.7131H169.169Z" fill="white"/>
<path d="M175.599 49.7131V63.3158H185.986V60.5952H178.567V57.6274H184.997V55.1542H178.567V52.1863H185.739V49.7131H175.599Z" fill="white"/>
<path d="M195.138 57.8737H198.106V59.8523C197.364 60.3469 196.375 60.5943 195.386 60.5943C192.912 60.5943 191.181 58.863 191.181 56.3898C191.181 54.1639 192.912 52.1854 195.138 52.1854C196.622 52.1854 197.611 52.68 198.601 53.6693L200.579 51.4434C199.095 50.2068 197.611 49.4648 195.138 49.4648C190.934 49.4648 187.966 52.68 187.966 56.3898C187.966 60.3469 190.934 63.3148 195.138 63.3148C197.611 63.3148 199.59 62.3255 200.826 61.0889V55.1532H194.891V57.8737H195.138Z" fill="white"/>
<path d="M212.203 54.4113C212.203 55.6479 211.461 56.3898 209.977 56.3898H207.009V52.4327H209.977C211.461 52.4327 212.203 52.9273 212.203 54.4113ZM215.418 54.1639C215.418 52.9273 214.923 51.6907 214.181 50.9488C213.192 49.9595 211.955 49.4648 210.224 49.4648H204.041V63.0675H207.009V58.6157H209.235L212.203 63.0675H215.665L212.45 58.1211C214.181 57.6264 215.418 56.3898 215.418 54.1639Z" fill="white"/>
<path d="M100.911 37.5902C100.911 35.3643 102.642 33.3858 104.868 33.3858C107.094 33.3858 109.072 35.117 109.072 37.3429C109.072 39.5688 107.341 41.5473 105.115 41.5473C102.889 41.5473 100.911 39.8161 100.911 37.5902ZM112.287 37.3429C112.287 33.3858 108.825 30.1706 104.868 30.4179C100.911 30.4179 97.6958 33.8804 97.9431 37.8375C97.9431 41.7947 101.406 45.0098 105.363 44.7625C109.32 44.5152 112.287 41.3 112.287 37.3429Z" fill="white"/>
<path d="M147.652 33.3858C149.878 33.3858 151.856 35.117 151.856 37.3429C151.856 39.5688 150.125 41.5473 147.899 41.5473C145.674 41.5473 143.695 39.8161 143.695 37.5902C143.695 35.3643 145.426 33.3858 147.652 33.3858ZM148.147 44.7625C152.104 44.7625 155.319 41.3 155.072 37.3429C155.072 33.3858 151.609 30.1706 147.652 30.4179C143.695 30.4179 140.48 33.8804 140.727 37.8375C140.727 41.5473 143.942 44.7625 148.147 44.7625Z" fill="white"/>
<path d="M109.32 60.5872C107.094 60.5872 105.116 58.8559 105.116 56.6301C105.116 54.4042 106.847 52.4256 109.073 52.4256C111.298 52.4256 113.277 54.1568 113.277 56.3827C113.277 58.6086 111.546 60.3399 109.32 60.5872ZM109.073 49.2104C105.116 49.2104 101.9 52.6729 102.148 56.6301C102.148 60.5872 105.61 63.8023 109.567 63.555C113.524 63.555 116.739 60.0925 116.492 56.1354C116.245 52.1783 113.03 49.2104 109.073 49.2104Z" fill="white"/>
<path d="M224.814 60.5872C222.589 60.5872 220.61 58.8559 220.61 56.6301C220.61 54.4042 222.341 52.4256 224.567 52.4256C226.793 52.4256 228.772 54.1568 228.772 56.3827C228.772 58.6086 227.04 60.3399 224.814 60.5872ZM224.567 49.2104C220.61 49.2104 217.395 52.6729 217.642 56.6301C217.642 60.5872 221.105 63.8023 225.062 63.555C229.019 63.555 232.234 60.0925 231.987 56.1354C231.739 52.1783 228.524 49.2104 224.567 49.2104Z" fill="white"/>
<path d="M55.4028 14.5946L41.5531 11.1321L37.3487 15.3365L33.1443 11.1321L19.2946 14.5946L33.6389 20.5302L31.9077 24.4874H33.1443L37.3487 20.2829L41.5531 24.4874H42.7897L41.0584 20.5302L55.4028 14.5946Z" fill="white"/>
<path d="M195.138 57.8737H198.106V59.8523C197.364 60.3469 196.375 60.5943 195.386 60.5943C192.912 60.5943 191.181 58.863 191.181 56.3898C191.181 54.1639 192.912 52.1854 195.138 52.1854C196.622 52.1854 197.611 52.68 198.601 53.6693L200.579 51.4434C199.095 50.2068 197.611 49.4648 195.138 49.4648C190.934 49.4648 187.966 52.68 187.966 56.3898C187.966 60.3469 190.934 63.3148 195.138 63.3148C197.611 63.3148 199.59 62.3255 200.826 61.0889V55.1532H194.891V57.8737H195.138Z" fill="white"/>
<path d="M212.203 54.4113C212.203 55.6479 211.461 56.3898 209.977 56.3898H207.009V52.4327H209.977C211.461 52.4327 212.203 52.9273 212.203 54.4113ZM215.418 54.1639C215.418 52.9273 214.923 51.6907 214.181 50.9488C213.192 49.9595 211.955 49.4648 210.224 49.4648H204.041V63.0675H207.009V58.6157H209.235L212.203 63.0675H215.665L212.45 58.1211C214.181 57.6264 215.418 56.3898 215.418 54.1639Z" fill="white"/>
<path d="M100.911 37.5902C100.911 35.3643 102.642 33.3858 104.868 33.3858C107.094 33.3858 109.072 35.117 109.072 37.3429C109.072 39.5688 107.341 41.5473 105.115 41.5473C102.889 41.5473 100.911 39.8161 100.911 37.5902ZM112.287 37.3429C112.287 33.3858 108.825 30.1706 104.868 30.4179C100.911 30.4179 97.6958 33.8804 97.9431 37.8375C97.9431 41.7947 101.406 45.0098 105.363 44.7625C109.32 44.5152 112.287 41.3 112.287 37.3429Z" fill="white"/>
<path d="M147.652 33.3858C149.878 33.3858 151.856 35.117 151.856 37.3429C151.856 39.5688 150.125 41.5473 147.899 41.5473C145.674 41.5473 143.695 39.8161 143.695 37.5902C143.695 35.3643 145.426 33.3858 147.652 33.3858ZM148.147 44.7625C152.104 44.7625 155.319 41.3 155.072 37.3429C155.072 33.3858 151.609 30.1706 147.652 30.4179C143.695 30.4179 140.48 33.8804 140.727 37.8375C140.727 41.5473 143.942 44.7625 148.147 44.7625Z" fill="white"/>
<path d="M109.32 60.5872C107.094 60.5872 105.116 58.8559 105.116 56.6301C105.116 54.4042 106.847 52.4256 109.073 52.4256C111.298 52.4256 113.277 54.1568 113.277 56.3827C113.277 58.6086 111.546 60.3399 109.32 60.5872ZM109.073 49.2104C105.116 49.2104 101.9 52.6729 102.148 56.6301C102.148 60.5872 105.61 63.8023 109.567 63.555C113.524 63.555 116.739 60.0925 116.492 56.1354C116.245 52.1783 113.03 49.2104 109.073 49.2104Z" fill="white"/>
<path d="M224.814 60.5872C222.589 60.5872 220.61 58.8559 220.61 56.6301C220.61 54.4042 222.341 52.4256 224.567 52.4256C226.793 52.4256 228.772 54.1568 228.772 56.3827C228.772 58.6086 227.04 60.3399 224.814 60.5872ZM224.567 49.2104C220.61 49.2104 217.395 52.6729 217.642 56.6301C217.642 60.5872 221.105 63.8023 225.062 63.555C229.019 63.555 232.234 60.0925 231.987 56.1354C231.739 52.1783 228.524 49.2104 224.567 49.2104Z" fill="white"/>
<path d="M55.4028 14.5946L41.5531 11.1321L37.3487 15.3365L33.1443 11.1321L19.2946 14.5946L33.6389 20.5302L31.9077 24.4874H33.1443L37.3487 20.2829L41.5531 24.4874H42.7897L41.0584 20.5302L55.4028 14.5946Z" fill="white"/>
<path d="M37.3495 0L34.6291 2.96784L32.6505 1.97855V5.68836H42.0486V1.97855L40.3174 2.96784L37.3495 0Z" fill="white"/>
<path d="M32.4052 28.1979L37.3516 36.3594L42.2979 28.1979L37.3516 23.2515L32.4052 28.1979Z" fill="white"/>
<path d="M42.2979 7.67383H32.4052L37.3516 12.6202L42.2979 7.67383Z" fill="white"/>
</svg>
