<svg width="319" height="321" viewBox="0 0 319 321" fill="none" xmlns="http://www.w3.org/2000/svg">
<path d="M318.454 129.019L196.489 98.5313L159.463 135.552L122.438 98.5313L0.472656 129.019L126.794 181.283L111.548 216.125L122.438 216.125L159.463 179.105L196.489 216.125L207.379 216.125L192.133 181.283L318.454 129.019Z" fill="#00455F" fill-opacity="0.03"/>
<path d="M159.459 0.535157L135.502 26.6671L118.078 17.9564L118.078 50.6214L200.841 50.6214L200.841 17.9564L185.595 26.6671L159.459 0.535157Z" fill="#00455F" fill-opacity="0.03"/>
<path d="M115.906 248.784L159.465 320.647L203.025 248.784L159.465 205.23L115.906 248.784Z" fill="#00455F" fill-opacity="0.03"/>
<path d="M203.025 68.043L115.906 68.043L159.465 111.596L203.025 68.043Z" fill="#00455F" fill-opacity="0.03"/>
</svg>
